# xmcd
#
# Track frame offsets:
#	150
#	11523
#	21765
#	32943
#	44918
#	56493
#	67253
#	77678
#	89443
#	100850
#
# Disc length: 1490 seconds
#
# Revision: 3
# Processed by: cddbd v1.5.2PL0 Copyright (c) Steve Scherf et al.
# Submitted via: audiograbber 1.83.01
#
DISCID=8405d00a
DTITLE=Patsy Cline - Today, Tomorrow And Forever
DYEAR=1900
DGENRE=Oldies
TTITLE0=Just Out Of Reach
TTITLE1=Three Cigarettes In An Ashtray
TTITLE2=Stop The World (And Let Me Off)
TTITLE3=Today, Tomorrow And Forever
TTITLE4=Walking' After Midnight
TTITLE5=Honky Tonk Merry Go Round
TTITLE6=Walking Dream
TTITLE7=A Poor Man's Roses (Or A Rich Man's Gold)
TTITLE8=That Wonderful Someone
TTITLE9=Hidin' Out
EXTD=
EXTT0=
EXTT1=
EXTT2=
EXTT3=
EXTT4=
EXTT5=
EXTT6=
EXTT7=
EXTT8=
EXTT9=
PLAYORDER=
